<mxfile host="app.diagrams.net" agent="Mozilla/5.0 (Windows NT 10.0; Win64; x64) AppleWebKit/537.36 (KHTML, like Gecko) Chrome/139.0.0.0 Safari/537.36 Edg/139.0.0.0" version="28.1.1">
  <diagram name="第 1 页" id="l2hB9Si-Xv-hDyjQYC1T">
    <mxGraphModel dx="778" dy="523" grid="1" gridSize="10" guides="1" tooltips="1" connect="1" arrows="1" fold="1" page="1" pageScale="1" pageWidth="827" pageHeight="1169" math="0" shadow="0">
      <root>
        <mxCell id="0" />
        <mxCell id="1" parent="0" />
        <mxCell id="9XXfysDRrCgoyy1b-tBv-4" style="rounded=0;orthogonalLoop=1;jettySize=auto;html=1;entryX=0.5;entryY=0;entryDx=0;entryDy=0;exitX=0.25;exitY=1;exitDx=0;exitDy=0;" parent="1" source="9XXfysDRrCgoyy1b-tBv-1" target="9XXfysDRrCgoyy1b-tBv-2" edge="1">
          <mxGeometry relative="1" as="geometry" />
        </mxCell>
        <mxCell id="9XXfysDRrCgoyy1b-tBv-5" style="rounded=0;orthogonalLoop=1;jettySize=auto;html=1;exitX=0.75;exitY=1;exitDx=0;exitDy=0;entryX=0.5;entryY=0;entryDx=0;entryDy=0;" parent="1" source="9XXfysDRrCgoyy1b-tBv-1" target="9XXfysDRrCgoyy1b-tBv-3" edge="1">
          <mxGeometry relative="1" as="geometry" />
        </mxCell>
        <mxCell id="9XXfysDRrCgoyy1b-tBv-1" value="学生信息管理" style="rounded=1;whiteSpace=wrap;html=1;" parent="1" vertex="1">
          <mxGeometry x="200" y="120" width="120" height="60" as="geometry" />
        </mxCell>
        <mxCell id="9XXfysDRrCgoyy1b-tBv-2" value="学生修改自己的信息" style="rounded=1;whiteSpace=wrap;html=1;" parent="1" vertex="1">
          <mxGeometry x="130" y="220" width="120" height="60" as="geometry" />
        </mxCell>
        <mxCell id="9XXfysDRrCgoyy1b-tBv-3" value="教务审核学生的修改" style="rounded=1;whiteSpace=wrap;html=1;" parent="1" vertex="1">
          <mxGeometry x="294" y="220" width="120" height="60" as="geometry" />
        </mxCell>
        <mxCell id="lSaY9q-4pcw4swmBdVrE-3" style="edgeStyle=orthogonalEdgeStyle;rounded=0;orthogonalLoop=1;jettySize=auto;html=1;exitX=1;exitY=0.5;exitDx=0;exitDy=0;" edge="1" parent="1" source="lSaY9q-4pcw4swmBdVrE-1" target="lSaY9q-4pcw4swmBdVrE-2">
          <mxGeometry relative="1" as="geometry" />
        </mxCell>
        <mxCell id="lSaY9q-4pcw4swmBdVrE-4" value="学生" style="edgeLabel;html=1;align=center;verticalAlign=middle;resizable=0;points=[];" vertex="1" connectable="0" parent="lSaY9q-4pcw4swmBdVrE-3">
          <mxGeometry x="-0.0333" relative="1" as="geometry">
            <mxPoint y="1" as="offset" />
          </mxGeometry>
        </mxCell>
        <mxCell id="lSaY9q-4pcw4swmBdVrE-6" style="edgeStyle=orthogonalEdgeStyle;rounded=0;orthogonalLoop=1;jettySize=auto;html=1;exitX=0.5;exitY=1;exitDx=0;exitDy=0;entryX=0;entryY=0.5;entryDx=0;entryDy=0;" edge="1" parent="1" source="lSaY9q-4pcw4swmBdVrE-1" target="lSaY9q-4pcw4swmBdVrE-5">
          <mxGeometry relative="1" as="geometry" />
        </mxCell>
        <mxCell id="lSaY9q-4pcw4swmBdVrE-7" value="教务" style="edgeLabel;html=1;align=center;verticalAlign=middle;resizable=0;points=[];" vertex="1" connectable="0" parent="lSaY9q-4pcw4swmBdVrE-6">
          <mxGeometry x="0.2718" y="2" relative="1" as="geometry">
            <mxPoint y="1" as="offset" />
          </mxGeometry>
        </mxCell>
        <mxCell id="lSaY9q-4pcw4swmBdVrE-1" value="用户登录" style="rounded=1;whiteSpace=wrap;html=1;" vertex="1" parent="1">
          <mxGeometry x="50" y="420" width="120" height="60" as="geometry" />
        </mxCell>
        <mxCell id="lSaY9q-4pcw4swmBdVrE-9" style="edgeStyle=orthogonalEdgeStyle;rounded=0;orthogonalLoop=1;jettySize=auto;html=1;exitX=0.5;exitY=1;exitDx=0;exitDy=0;entryX=0.5;entryY=0;entryDx=0;entryDy=0;" edge="1" parent="1" source="lSaY9q-4pcw4swmBdVrE-2" target="lSaY9q-4pcw4swmBdVrE-5">
          <mxGeometry relative="1" as="geometry" />
        </mxCell>
        <mxCell id="lSaY9q-4pcw4swmBdVrE-2" value="学生维护信息" style="rounded=1;whiteSpace=wrap;html=1;" vertex="1" parent="1">
          <mxGeometry x="230" y="420" width="120" height="60" as="geometry" />
        </mxCell>
        <mxCell id="lSaY9q-4pcw4swmBdVrE-5" value="审核学生修改" style="rounded=1;whiteSpace=wrap;html=1;" vertex="1" parent="1">
          <mxGeometry x="230" y="525" width="120" height="60" as="geometry" />
        </mxCell>
      </root>
    </mxGraphModel>
  </diagram>
</mxfile>
